<?xml version="1.0" encoding="utf-8"?>
<!-- Generator: Adobe Illustrator 25.0.0, SVG Export Plug-In . SVG Version: 6.00 Build 0)  -->
<svg version="1.1" id="Capa_1" xmlns="http://www.w3.org/2000/svg" xmlns:xlink="http://www.w3.org/1999/xlink" x="0px" y="0px"
	 viewBox="0 0 385.08 289.4" style="enable-background:new 0 0 385.08 289.4;" xml:space="preserve">
<style type="text/css">
	.st0{fill:#581204;stroke:#72190D;stroke-miterlimit:10;}
	.st1{fill:#460D00;stroke:#72190D;stroke-miterlimit:10;}
	.st2{fill:#440C00;stroke:#72190D;stroke-miterlimit:10;}
</style>
<path class="st0" d="M18.52,0.5h348c0,0,18,8.88,18,21.93c0,0,2.2,19.78-19.56,26.11H18.52c0,0-18-5.32-18-24.02
	C0.52,24.41-0.76,8.63,18.52,0.5z"/>
<path class="st1" d="M18.52,120.68h348c0,0,18,8.88,18,21.93c0,0,2.2,19.78-19.56,26.11H18.52c0,0-18-5.32-18-24.02
	C0.52,144.59-0.76,128.81,18.52,120.68z"/>
<path class="st2" d="M18.52,240.86h348c0,0,18,8.88,18,21.93c0,0,2.2,19.78-19.56,26.11H18.52c0,0-18-5.32-18-24.02
	C0.52,264.77-0.76,248.99,18.52,240.86z"/>
</svg>
